<?xml version="1.0" standalone="no"?>
<!DOCTYPE svg PUBLIC "-//W3C//DTD SVG 20010904//EN"
 "http://www.w3.org/TR/2001/REC-SVG-20010904/DTD/svg10.dtd">
<svg version="1.0" xmlns="http://www.w3.org/2000/svg"
 width="1024.000000pt" height="1024.000000pt" viewBox="0 0 1024.000000 1024.000000"
 preserveAspectRatio="xMidYMid meet">

<g transform="translate(0.000000,1024.000000) scale(0.100000,-0.100000)"
fill="#000000" stroke="none">
<path d="M1610 6596 c0 -63 4 -117 8 -120 20 -12 31 15 34 84 l3 75 34 -72
c18 -40 40 -73 48 -73 8 0 21 17 29 38 8 20 23 55 34 77 l19 40 0 -87 c1 -49
3 -88 5 -88 2 0 11 3 20 6 13 5 16 25 16 120 l0 114 -29 0 c-26 0 -31 -6 -51
-57 -43 -107 -38 -106 -82 -20 -32 65 -42 77 -63 77 l-25 0 0 -114z"/>
<path d="M2042 6593 l3 -117 80 1 c73 1 80 3 83 22 3 19 -1 21 -57 21 l-61 0
0 30 c0 30 0 30 56 30 47 0 55 3 52 18 -2 13 -15 18 -56 20 -48 3 -52 5 -52
28 0 23 3 24 60 24 53 0 60 2 60 20 0 18 -7 20 -85 20 l-86 0 3 -117z"/>
<path d="M2380 6615 c0 -81 3 -98 19 -114 31 -31 84 -37 123 -14 39 22 46 44
47 146 1 76 1 77 -24 77 -25 0 -25 -1 -25 -90 0 -78 -2 -91 -19 -100 -58 -31
-81 -1 -81 106 0 77 -2 84 -20 84 -19 0 -20 -7 -20 -95z"/>
<path d="M1696 6312 c5 -5 30 -17 56 -26 30 -11 56 -30 70 -49 l23 -32 3 -865
c1 -476 0 -875 -3 -887 -9 -38 -64 -92 -106 -104 -21 -7 -39 -16 -39 -21 0 -5
178 -8 395 -8 217 1 395 4 395 8 0 4 -21 18 -47 32 -28 15 -56 39 -68 60 -20
34 -20 51 -23 865 -2 573 1 845 8 882 14 66 54 109 116 124 24 6 47 15 50 20
3 5 -178 9 -417 9 -233 0 -419 -4 -413 -8z"/>
<path d="M5085 6161 c-98 -44 -150 -155 -125 -263 17 -68 86 -141 150 -158 97
-26 198 14 247 98 24 39 28 58 28 117 -1 76 -14 111 -62 159 -62 63 -160 83
-238 47z"/>
<path d="M6352 6159 c-55 -28 -99 -81 -117 -143 -31 -102 -9 -179 74 -269 35
-37 61 -75 66 -94 3 -18 5 -33 3 -33 -2 0 -35 7 -73 15 -327 69 -663 -126
-748 -436 -47 -166 -22 -321 76 -473 l31 -49 -23 -16 c-123 -86 -180 -160
-202 -259 -14 -59 -26 -62 -51 -11 -17 31 -18 82 -18 626 0 565 -1 593 -18
602 -25 13 -513 -51 -512 -67 1 -4 20 -16 43 -27 79 -38 77 -21 77 -600 0
-491 -1 -511 -20 -543 -11 -18 -36 -40 -55 -49 -19 -9 -35 -20 -35 -25 0 -4
130 -8 290 -8 l290 0 6 -27 c31 -148 121 -251 252 -289 135 -39 238 5 457 197
162 142 201 171 285 215 50 26 64 29 155 29 91 0 104 -2 147 -27 105 -62 153
-156 152 -298 0 -180 -107 -337 -272 -400 -104 -39 -228 -35 -252 10 -14 27
-3 47 46 81 103 71 111 211 16 300 -50 48 -90 62 -157 57 -137 -11 -225 -154
-185 -300 15 -54 95 -137 159 -165 315 -139 682 93 681 431 0 66 -7 109 -24
163 l-7 23 307 2 307 3 -38 25 c-21 14 -48 38 -59 53 -21 28 -21 39 -24 586
-2 446 0 560 10 569 28 23 147 54 223 59 92 6 143 -9 171 -51 23 -37 14 -106
-20 -149 -15 -17 -39 -50 -54 -71 l-27 -39 -5 -447 c-6 -494 -3 -480 -73 -517
-32 -18 -31 -18 131 -21 90 -1 234 -1 320 0 l157 3 -43 28 c-73 48 -72 37 -72
570 0 555 1 550 -84 633 -76 74 -139 96 -291 101 -118 4 -180 -6 -322 -52
l-23 -7 0 284 c0 208 -3 287 -12 296 -7 7 -26 12 -43 12 -48 0 -475 -54 -475
-60 0 -3 19 -14 42 -25 23 -11 51 -33 63 -48 20 -28 20 -41 23 -810 2 -535 0
-794 -8 -819 -9 -32 -59 -88 -79 -88 -4 0 -26 29 -49 64 -49 74 -122 142 -196
182 -28 15 -52 28 -54 30 -2 1 17 21 42 45 66 60 136 170 158 248 22 76 26
219 8 296 -32 138 -163 302 -302 379 -67 37 -68 38 -68 80 0 48 12 62 97 115
102 63 140 131 130 229 -11 107 -89 181 -199 189 -51 3 -71 0 -106 -18z m-118
-573 c109 -46 152 -223 144 -594 -4 -193 -7 -212 -32 -287 -15 -44 -35 -88
-43 -98 -9 -9 -57 -40 -106 -67 l-91 -51 -23 28 c-38 47 -81 144 -95 218 -21
112 -18 559 5 655 40 173 127 244 241 196z m-493 -976 c92 -72 231 -129 319
-130 30 0 32 -2 20 -14 -26 -25 -142 -86 -202 -107 -180 -60 -326 24 -287 166
9 30 81 125 96 125 2 0 26 -18 54 -40z"/>
<path d="M8637 5795 c-81 -92 -198 -145 -352 -159 -98 -10 -118 -15 -105 -31
6 -7 28 -15 51 -19 22 -3 42 -12 45 -19 2 -6 5 -244 7 -527 l2 -515 24 -52
c84 -187 337 -241 564 -120 32 17 63 39 69 50 9 17 8 19 -8 12 -11 -4 -41 -10
-69 -12 -56 -5 -100 17 -139 70 -21 28 -21 38 -24 573 l-3 544 83 0 c85 0 116
9 104 29 -5 7 -42 11 -97 11 l-89 0 0 110 c0 61 -3 110 -7 110 -5 0 -30 -25
-56 -55z"/>
<path d="M3181 5734 c-30 -8 -73 -23 -97 -33 l-43 -19 -10 30 c-9 25 -15 29
-33 25 -13 -3 -106 -17 -208 -32 -202 -28 -280 -43 -280 -54 0 -4 16 -15 35
-24 19 -9 44 -31 55 -49 19 -32 20 -52 20 -586 0 -617 3 -591 -70 -637 -22
-14 -40 -27 -40 -30 0 -3 144 -5 320 -5 176 0 320 3 320 8 0 4 -15 14 -32 23
-17 8 -41 28 -52 43 -21 27 -21 39 -24 636 l-2 609 27 15 c55 28 166 56 222
56 71 0 137 -29 151 -65 18 -48 11 -73 -41 -140 -83 -109 -79 -77 -79 -592 0
-430 -2 -461 -20 -500 -13 -30 -30 -48 -54 -60 -20 -9 -36 -20 -36 -25 0 -4
147 -8 328 -7 257 0 323 3 308 12 -73 47 -93 67 -104 104 -9 29 -12 183 -12
550 0 593 1 583 -84 669 -72 72 -144 94 -300 93 -63 0 -134 -7 -165 -15z"/>
<path d="M4225 5734 c-175 -24 -289 -83 -336 -176 -30 -59 -41 -133 -29 -198
25 -136 100 -224 357 -419 177 -134 284 -238 303 -296 16 -48 8 -120 -17 -154
-33 -45 -98 -71 -178 -71 -83 0 -139 14 -166 41 -32 32 -24 63 36 130 85 95
95 177 34 273 -38 61 -118 101 -185 93 -152 -17 -240 -191 -169 -334 49 -98
167 -182 306 -218 49 -13 91 -16 179 -12 180 8 296 48 394 138 73 66 99 122
98 208 -1 156 -95 279 -421 546 -171 141 -221 206 -221 288 0 42 5 54 33 82
85 85 260 38 368 -97 42 -53 119 -202 119 -231 0 -8 9 -25 20 -38 l19 -24 1
233 c0 127 -1 232 -3 232 -1 0 -20 -9 -42 -20 -49 -25 -107 -25 -211 0 -81 19
-232 32 -289 24z"/>
</g>
</svg>
